<mxfile host="app.diagrams.net" agent="Mozilla/5.0 (Windows NT 10.0; Win64; x64) AppleWebKit/537.36 (KHTML, like Gecko) Chrome/137.0.0.0 Safari/537.36 Edg/137.0.0.0" version="27.1.6">
  <diagram name="Page-1" id="Z8x4UNz57Ex34LJDmVKg">
    <mxGraphModel dx="2542" dy="1467" grid="1" gridSize="10" guides="1" tooltips="1" connect="1" arrows="1" fold="1" page="1" pageScale="1" pageWidth="850" pageHeight="1100" math="0" shadow="0">
      <root>
        <mxCell id="0" />
        <mxCell id="1" parent="0" />
        <mxCell id="QbKwpGhtAWg21QJ3tqEk-1" value="&lt;&lt;abstract&gt;&gt;&#xa;Usuario" style="swimlane;fontStyle=1;align=center;verticalAlign=top;childLayout=stackLayout;horizontal=1;startSize=47.97749248303865;horizontalStack=0;resizeParent=1;resizeParentMax=0;resizeLast=0;collapsible=0;marginBottom=0;" vertex="1" parent="1">
          <mxGeometry x="430" y="620" width="281" height="311.97749248303865" as="geometry" />
        </mxCell>
        <mxCell id="QbKwpGhtAWg21QJ3tqEk-2" value="-int id" style="text;strokeColor=none;fillColor=none;align=left;verticalAlign=top;spacingLeft=4;spacingRight=4;overflow=hidden;rotatable=0;points=[[0,0.5],[1,0.5]];portConstraint=eastwest;" vertex="1" parent="QbKwpGhtAWg21QJ3tqEk-1">
          <mxGeometry y="47.97749248303865" width="281" height="32" as="geometry" />
        </mxCell>
        <mxCell id="QbKwpGhtAWg21QJ3tqEk-3" value="-String nombre" style="text;strokeColor=none;fillColor=none;align=left;verticalAlign=top;spacingLeft=4;spacingRight=4;overflow=hidden;rotatable=0;points=[[0,0.5],[1,0.5]];portConstraint=eastwest;" vertex="1" parent="QbKwpGhtAWg21QJ3tqEk-1">
          <mxGeometry y="79.97749248303865" width="281" height="32" as="geometry" />
        </mxCell>
        <mxCell id="QbKwpGhtAWg21QJ3tqEk-4" value="-String correo" style="text;strokeColor=none;fillColor=none;align=left;verticalAlign=top;spacingLeft=4;spacingRight=4;overflow=hidden;rotatable=0;points=[[0,0.5],[1,0.5]];portConstraint=eastwest;" vertex="1" parent="QbKwpGhtAWg21QJ3tqEk-1">
          <mxGeometry y="111.97749248303865" width="281" height="32" as="geometry" />
        </mxCell>
        <mxCell id="QbKwpGhtAWg21QJ3tqEk-5" value="-String telefono" style="text;strokeColor=none;fillColor=none;align=left;verticalAlign=top;spacingLeft=4;spacingRight=4;overflow=hidden;rotatable=0;points=[[0,0.5],[1,0.5]];portConstraint=eastwest;" vertex="1" parent="QbKwpGhtAWg21QJ3tqEk-1">
          <mxGeometry y="143.97749248303865" width="281" height="32" as="geometry" />
        </mxCell>
        <mxCell id="QbKwpGhtAWg21QJ3tqEk-6" value="-String tipo_usuario" style="text;strokeColor=none;fillColor=none;align=left;verticalAlign=top;spacingLeft=4;spacingRight=4;overflow=hidden;rotatable=0;points=[[0,0.5],[1,0.5]];portConstraint=eastwest;" vertex="1" parent="QbKwpGhtAWg21QJ3tqEk-1">
          <mxGeometry y="175.97749248303865" width="281" height="32" as="geometry" />
        </mxCell>
        <mxCell id="QbKwpGhtAWg21QJ3tqEk-7" style="line;strokeWidth=1;fillColor=none;align=left;verticalAlign=middle;spacingTop=-1;spacingLeft=3;spacingRight=3;rotatable=0;labelPosition=right;points=[];portConstraint=eastwest;strokeColor=inherit;" vertex="1" parent="QbKwpGhtAWg21QJ3tqEk-1">
          <mxGeometry y="207.97749248303865" width="281" height="8" as="geometry" />
        </mxCell>
        <mxCell id="QbKwpGhtAWg21QJ3tqEk-8" value="+validarEmail() : boolean" style="text;strokeColor=none;fillColor=none;align=left;verticalAlign=top;spacingLeft=4;spacingRight=4;overflow=hidden;rotatable=0;points=[[0,0.5],[1,0.5]];portConstraint=eastwest;" vertex="1" parent="QbKwpGhtAWg21QJ3tqEk-1">
          <mxGeometry y="215.97749248303865" width="281" height="32" as="geometry" />
        </mxCell>
        <mxCell id="QbKwpGhtAWg21QJ3tqEk-9" value="+actualizarDatos() : void" style="text;strokeColor=none;fillColor=none;align=left;verticalAlign=top;spacingLeft=4;spacingRight=4;overflow=hidden;rotatable=0;points=[[0,0.5],[1,0.5]];portConstraint=eastwest;" vertex="1" parent="QbKwpGhtAWg21QJ3tqEk-1">
          <mxGeometry y="247.97749248303865" width="281" height="32" as="geometry" />
        </mxCell>
        <mxCell id="QbKwpGhtAWg21QJ3tqEk-10" value="+obtenerInformacion() : String" style="text;strokeColor=none;fillColor=none;align=left;verticalAlign=top;spacingLeft=4;spacingRight=4;overflow=hidden;rotatable=0;points=[[0,0.5],[1,0.5]];portConstraint=eastwest;" vertex="1" parent="QbKwpGhtAWg21QJ3tqEk-1">
          <mxGeometry y="279.97749248303865" width="281" height="32" as="geometry" />
        </mxCell>
        <mxCell id="QbKwpGhtAWg21QJ3tqEk-11" value="Gerente" style="swimlane;fontStyle=1;align=center;verticalAlign=top;childLayout=stackLayout;horizontal=1;startSize=31.09685601128472;horizontalStack=0;resizeParent=1;resizeParentMax=0;resizeLast=0;collapsible=0;marginBottom=0;" vertex="1" parent="1">
          <mxGeometry x="410" y="1093.36" width="362" height="287.09685601128473" as="geometry" />
        </mxCell>
        <mxCell id="QbKwpGhtAWg21QJ3tqEk-12" value="-String cargo" style="text;strokeColor=none;fillColor=none;align=left;verticalAlign=top;spacingLeft=4;spacingRight=4;overflow=hidden;rotatable=0;points=[[0,0.5],[1,0.5]];portConstraint=eastwest;" vertex="1" parent="QbKwpGhtAWg21QJ3tqEk-11">
          <mxGeometry y="31.09685601128472" width="362" height="31" as="geometry" />
        </mxCell>
        <mxCell id="QbKwpGhtAWg21QJ3tqEk-13" value="-String oficina" style="text;strokeColor=none;fillColor=none;align=left;verticalAlign=top;spacingLeft=4;spacingRight=4;overflow=hidden;rotatable=0;points=[[0,0.5],[1,0.5]];portConstraint=eastwest;" vertex="1" parent="QbKwpGhtAWg21QJ3tqEk-11">
          <mxGeometry y="62.09685601128472" width="362" height="31" as="geometry" />
        </mxCell>
        <mxCell id="QbKwpGhtAWg21QJ3tqEk-14" value="-List&lt;HorarioAtencion&gt; horariosDisponibles" style="text;strokeColor=none;fillColor=none;align=left;verticalAlign=top;spacingLeft=4;spacingRight=4;overflow=hidden;rotatable=0;points=[[0,0.5],[1,0.5]];portConstraint=eastwest;" vertex="1" parent="QbKwpGhtAWg21QJ3tqEk-11">
          <mxGeometry y="93.09685601128473" width="362" height="31" as="geometry" />
        </mxCell>
        <mxCell id="QbKwpGhtAWg21QJ3tqEk-15" style="line;strokeWidth=1;fillColor=none;align=left;verticalAlign=middle;spacingTop=-1;spacingLeft=3;spacingRight=3;rotatable=0;labelPosition=right;points=[];portConstraint=eastwest;strokeColor=inherit;" vertex="1" parent="QbKwpGhtAWg21QJ3tqEk-11">
          <mxGeometry y="124.09685601128473" width="362" height="8" as="geometry" />
        </mxCell>
        <mxCell id="QbKwpGhtAWg21QJ3tqEk-16" value="+definirHorarioAtencion(horario) : void" style="text;strokeColor=none;fillColor=none;align=left;verticalAlign=top;spacingLeft=4;spacingRight=4;overflow=hidden;rotatable=0;points=[[0,0.5],[1,0.5]];portConstraint=eastwest;" vertex="1" parent="QbKwpGhtAWg21QJ3tqEk-11">
          <mxGeometry y="132.09685601128473" width="362" height="31" as="geometry" />
        </mxCell>
        <mxCell id="QbKwpGhtAWg21QJ3tqEk-17" value="+modificarHorarioAtencion(horario) : void" style="text;strokeColor=none;fillColor=none;align=left;verticalAlign=top;spacingLeft=4;spacingRight=4;overflow=hidden;rotatable=0;points=[[0,0.5],[1,0.5]];portConstraint=eastwest;" vertex="1" parent="QbKwpGhtAWg21QJ3tqEk-11">
          <mxGeometry y="163.09685601128473" width="362" height="31" as="geometry" />
        </mxCell>
        <mxCell id="QbKwpGhtAWg21QJ3tqEk-18" value="+consultarAgenda() : List&lt;Cita&gt;" style="text;strokeColor=none;fillColor=none;align=left;verticalAlign=top;spacingLeft=4;spacingRight=4;overflow=hidden;rotatable=0;points=[[0,0.5],[1,0.5]];portConstraint=eastwest;" vertex="1" parent="QbKwpGhtAWg21QJ3tqEk-11">
          <mxGeometry y="194.09685601128473" width="362" height="31" as="geometry" />
        </mxCell>
        <mxCell id="QbKwpGhtAWg21QJ3tqEk-19" value="+aprobarCita(cita) : void" style="text;strokeColor=none;fillColor=none;align=left;verticalAlign=top;spacingLeft=4;spacingRight=4;overflow=hidden;rotatable=0;points=[[0,0.5],[1,0.5]];portConstraint=eastwest;" vertex="1" parent="QbKwpGhtAWg21QJ3tqEk-11">
          <mxGeometry y="225.09685601128473" width="362" height="31" as="geometry" />
        </mxCell>
        <mxCell id="QbKwpGhtAWg21QJ3tqEk-20" value="+rechazarCita(cita) : void" style="text;strokeColor=none;fillColor=none;align=left;verticalAlign=top;spacingLeft=4;spacingRight=4;overflow=hidden;rotatable=0;points=[[0,0.5],[1,0.5]];portConstraint=eastwest;" vertex="1" parent="QbKwpGhtAWg21QJ3tqEk-11">
          <mxGeometry y="256.09685601128473" width="362" height="31" as="geometry" />
        </mxCell>
        <mxCell id="QbKwpGhtAWg21QJ3tqEk-21" value="Secretaria" style="swimlane;fontStyle=1;align=center;verticalAlign=top;childLayout=stackLayout;horizontal=1;startSize=30.3857421875;horizontalStack=0;resizeParent=1;resizeParentMax=0;resizeLast=0;collapsible=0;marginBottom=0;" vertex="1" parent="1">
          <mxGeometry x="840" y="1093.3600000000001" width="352" height="308.3857421875" as="geometry" />
        </mxCell>
        <mxCell id="QbKwpGhtAWg21QJ3tqEk-22" value="-String usuario" style="text;strokeColor=none;fillColor=none;align=left;verticalAlign=top;spacingLeft=4;spacingRight=4;overflow=hidden;rotatable=0;points=[[0,0.5],[1,0.5]];portConstraint=eastwest;" vertex="1" parent="QbKwpGhtAWg21QJ3tqEk-21">
          <mxGeometry y="30.3857421875" width="352" height="30" as="geometry" />
        </mxCell>
        <mxCell id="QbKwpGhtAWg21QJ3tqEk-23" value="-String contrasena" style="text;strokeColor=none;fillColor=none;align=left;verticalAlign=top;spacingLeft=4;spacingRight=4;overflow=hidden;rotatable=0;points=[[0,0.5],[1,0.5]];portConstraint=eastwest;" vertex="1" parent="QbKwpGhtAWg21QJ3tqEk-21">
          <mxGeometry y="60.3857421875" width="352" height="30" as="geometry" />
        </mxCell>
        <mxCell id="QbKwpGhtAWg21QJ3tqEk-24" value="-Date fechaUltimoAcceso" style="text;strokeColor=none;fillColor=none;align=left;verticalAlign=top;spacingLeft=4;spacingRight=4;overflow=hidden;rotatable=0;points=[[0,0.5],[1,0.5]];portConstraint=eastwest;" vertex="1" parent="QbKwpGhtAWg21QJ3tqEk-21">
          <mxGeometry y="90.3857421875" width="352" height="30" as="geometry" />
        </mxCell>
        <mxCell id="QbKwpGhtAWg21QJ3tqEk-25" style="line;strokeWidth=1;fillColor=none;align=left;verticalAlign=middle;spacingTop=-1;spacingLeft=3;spacingRight=3;rotatable=0;labelPosition=right;points=[];portConstraint=eastwest;strokeColor=inherit;" vertex="1" parent="QbKwpGhtAWg21QJ3tqEk-21">
          <mxGeometry y="120.3857421875" width="352" height="8" as="geometry" />
        </mxCell>
        <mxCell id="QbKwpGhtAWg21QJ3tqEk-26" value="+registrarEvento(evento) : void" style="text;strokeColor=none;fillColor=none;align=left;verticalAlign=top;spacingLeft=4;spacingRight=4;overflow=hidden;rotatable=0;points=[[0,0.5],[1,0.5]];portConstraint=eastwest;" vertex="1" parent="QbKwpGhtAWg21QJ3tqEk-21">
          <mxGeometry y="128.3857421875" width="352" height="30" as="geometry" />
        </mxCell>
        <mxCell id="QbKwpGhtAWg21QJ3tqEk-27" value="+reagendarCita(cita, nuevaFecha) : void" style="text;strokeColor=none;fillColor=none;align=left;verticalAlign=top;spacingLeft=4;spacingRight=4;overflow=hidden;rotatable=0;points=[[0,0.5],[1,0.5]];portConstraint=eastwest;" vertex="1" parent="QbKwpGhtAWg21QJ3tqEk-21">
          <mxGeometry y="158.3857421875" width="352" height="30" as="geometry" />
        </mxCell>
        <mxCell id="QbKwpGhtAWg21QJ3tqEk-28" value="+modificarEvento(evento) : void" style="text;strokeColor=none;fillColor=none;align=left;verticalAlign=top;spacingLeft=4;spacingRight=4;overflow=hidden;rotatable=0;points=[[0,0.5],[1,0.5]];portConstraint=eastwest;" vertex="1" parent="QbKwpGhtAWg21QJ3tqEk-21">
          <mxGeometry y="188.3857421875" width="352" height="30" as="geometry" />
        </mxCell>
        <mxCell id="QbKwpGhtAWg21QJ3tqEk-29" value="+eliminarEvento(evento) : void" style="text;strokeColor=none;fillColor=none;align=left;verticalAlign=top;spacingLeft=4;spacingRight=4;overflow=hidden;rotatable=0;points=[[0,0.5],[1,0.5]];portConstraint=eastwest;" vertex="1" parent="QbKwpGhtAWg21QJ3tqEk-21">
          <mxGeometry y="218.3857421875" width="352" height="30" as="geometry" />
        </mxCell>
        <mxCell id="QbKwpGhtAWg21QJ3tqEk-30" value="+consultarConflictos() : List&lt;Evento&gt;" style="text;strokeColor=none;fillColor=none;align=left;verticalAlign=top;spacingLeft=4;spacingRight=4;overflow=hidden;rotatable=0;points=[[0,0.5],[1,0.5]];portConstraint=eastwest;" vertex="1" parent="QbKwpGhtAWg21QJ3tqEk-21">
          <mxGeometry y="248.3857421875" width="352" height="30" as="geometry" />
        </mxCell>
        <mxCell id="QbKwpGhtAWg21QJ3tqEk-31" value="+autenticar(usuario, clave) : boolean" style="text;strokeColor=none;fillColor=none;align=left;verticalAlign=top;spacingLeft=4;spacingRight=4;overflow=hidden;rotatable=0;points=[[0,0.5],[1,0.5]];portConstraint=eastwest;" vertex="1" parent="QbKwpGhtAWg21QJ3tqEk-21">
          <mxGeometry y="278.3857421875" width="352" height="30" as="geometry" />
        </mxCell>
        <mxCell id="QbKwpGhtAWg21QJ3tqEk-32" value="Empleado" style="swimlane;fontStyle=1;align=center;verticalAlign=top;childLayout=stackLayout;horizontal=1;startSize=31.09685601128472;horizontalStack=0;resizeParent=1;resizeParentMax=0;resizeLast=0;collapsible=0;marginBottom=0;" vertex="1" parent="1">
          <mxGeometry x="1270" y="1104" width="327" height="287.09685601128473" as="geometry" />
        </mxCell>
        <mxCell id="QbKwpGhtAWg21QJ3tqEk-33" value="-String codigoEmpleado" style="text;strokeColor=none;fillColor=none;align=left;verticalAlign=top;spacingLeft=4;spacingRight=4;overflow=hidden;rotatable=0;points=[[0,0.5],[1,0.5]];portConstraint=eastwest;" vertex="1" parent="QbKwpGhtAWg21QJ3tqEk-32">
          <mxGeometry y="31.09685601128472" width="327" height="31" as="geometry" />
        </mxCell>
        <mxCell id="QbKwpGhtAWg21QJ3tqEk-34" value="-String departamento" style="text;strokeColor=none;fillColor=none;align=left;verticalAlign=top;spacingLeft=4;spacingRight=4;overflow=hidden;rotatable=0;points=[[0,0.5],[1,0.5]];portConstraint=eastwest;" vertex="1" parent="QbKwpGhtAWg21QJ3tqEk-32">
          <mxGeometry y="62.09685601128472" width="327" height="31" as="geometry" />
        </mxCell>
        <mxCell id="QbKwpGhtAWg21QJ3tqEk-35" value="-String usuario" style="text;strokeColor=none;fillColor=none;align=left;verticalAlign=top;spacingLeft=4;spacingRight=4;overflow=hidden;rotatable=0;points=[[0,0.5],[1,0.5]];portConstraint=eastwest;" vertex="1" parent="QbKwpGhtAWg21QJ3tqEk-32">
          <mxGeometry y="93.09685601128473" width="327" height="31" as="geometry" />
        </mxCell>
        <mxCell id="QbKwpGhtAWg21QJ3tqEk-36" value="-String contrasena" style="text;strokeColor=none;fillColor=none;align=left;verticalAlign=top;spacingLeft=4;spacingRight=4;overflow=hidden;rotatable=0;points=[[0,0.5],[1,0.5]];portConstraint=eastwest;" vertex="1" parent="QbKwpGhtAWg21QJ3tqEk-32">
          <mxGeometry y="124.09685601128473" width="327" height="31" as="geometry" />
        </mxCell>
        <mxCell id="QbKwpGhtAWg21QJ3tqEk-37" style="line;strokeWidth=1;fillColor=none;align=left;verticalAlign=middle;spacingTop=-1;spacingLeft=3;spacingRight=3;rotatable=0;labelPosition=right;points=[];portConstraint=eastwest;strokeColor=inherit;" vertex="1" parent="QbKwpGhtAWg21QJ3tqEk-32">
          <mxGeometry y="155.09685601128473" width="327" height="8" as="geometry" />
        </mxCell>
        <mxCell id="QbKwpGhtAWg21QJ3tqEk-38" value="+solicitarCita(fecha, motivo) : Cita" style="text;strokeColor=none;fillColor=none;align=left;verticalAlign=top;spacingLeft=4;spacingRight=4;overflow=hidden;rotatable=0;points=[[0,0.5],[1,0.5]];portConstraint=eastwest;" vertex="1" parent="QbKwpGhtAWg21QJ3tqEk-32">
          <mxGeometry y="163.09685601128473" width="327" height="31" as="geometry" />
        </mxCell>
        <mxCell id="QbKwpGhtAWg21QJ3tqEk-39" value="+cancelarCita(cita) : void" style="text;strokeColor=none;fillColor=none;align=left;verticalAlign=top;spacingLeft=4;spacingRight=4;overflow=hidden;rotatable=0;points=[[0,0.5],[1,0.5]];portConstraint=eastwest;" vertex="1" parent="QbKwpGhtAWg21QJ3tqEk-32">
          <mxGeometry y="194.09685601128473" width="327" height="31" as="geometry" />
        </mxCell>
        <mxCell id="QbKwpGhtAWg21QJ3tqEk-40" value="+consultarMisCitas() : List&lt;Cita&gt;" style="text;strokeColor=none;fillColor=none;align=left;verticalAlign=top;spacingLeft=4;spacingRight=4;overflow=hidden;rotatable=0;points=[[0,0.5],[1,0.5]];portConstraint=eastwest;" vertex="1" parent="QbKwpGhtAWg21QJ3tqEk-32">
          <mxGeometry y="225.09685601128473" width="327" height="31" as="geometry" />
        </mxCell>
        <mxCell id="QbKwpGhtAWg21QJ3tqEk-41" value="+autenticar(usuario, clave) : boolean" style="text;strokeColor=none;fillColor=none;align=left;verticalAlign=top;spacingLeft=4;spacingRight=4;overflow=hidden;rotatable=0;points=[[0,0.5],[1,0.5]];portConstraint=eastwest;" vertex="1" parent="QbKwpGhtAWg21QJ3tqEk-32">
          <mxGeometry y="256.09685601128473" width="327" height="31" as="geometry" />
        </mxCell>
        <mxCell id="QbKwpGhtAWg21QJ3tqEk-42" value="Visitante" style="swimlane;fontStyle=1;align=center;verticalAlign=top;childLayout=stackLayout;horizontal=1;startSize=33.12859889439174;horizontalStack=0;resizeParent=1;resizeParentMax=0;resizeLast=0;collapsible=0;marginBottom=0;" vertex="1" parent="1">
          <mxGeometry x="1660" y="1104" width="377" height="239.12859889439176" as="geometry" />
        </mxCell>
        <mxCell id="QbKwpGhtAWg21QJ3tqEk-43" value="-String empresa" style="text;strokeColor=none;fillColor=none;align=left;verticalAlign=top;spacingLeft=4;spacingRight=4;overflow=hidden;rotatable=0;points=[[0,0.5],[1,0.5]];portConstraint=eastwest;" vertex="1" parent="QbKwpGhtAWg21QJ3tqEk-42">
          <mxGeometry y="33.12859889439174" width="377" height="33" as="geometry" />
        </mxCell>
        <mxCell id="QbKwpGhtAWg21QJ3tqEk-44" value="-String motivoVisita" style="text;strokeColor=none;fillColor=none;align=left;verticalAlign=top;spacingLeft=4;spacingRight=4;overflow=hidden;rotatable=0;points=[[0,0.5],[1,0.5]];portConstraint=eastwest;" vertex="1" parent="QbKwpGhtAWg21QJ3tqEk-42">
          <mxGeometry y="66.12859889439174" width="377" height="33" as="geometry" />
        </mxCell>
        <mxCell id="QbKwpGhtAWg21QJ3tqEk-45" value="-boolean esRecurrente" style="text;strokeColor=none;fillColor=none;align=left;verticalAlign=top;spacingLeft=4;spacingRight=4;overflow=hidden;rotatable=0;points=[[0,0.5],[1,0.5]];portConstraint=eastwest;" vertex="1" parent="QbKwpGhtAWg21QJ3tqEk-42">
          <mxGeometry y="99.12859889439174" width="377" height="33" as="geometry" />
        </mxCell>
        <mxCell id="QbKwpGhtAWg21QJ3tqEk-46" style="line;strokeWidth=1;fillColor=none;align=left;verticalAlign=middle;spacingTop=-1;spacingLeft=3;spacingRight=3;rotatable=0;labelPosition=right;points=[];portConstraint=eastwest;strokeColor=inherit;" vertex="1" parent="QbKwpGhtAWg21QJ3tqEk-42">
          <mxGeometry y="132.12859889439176" width="377" height="8" as="geometry" />
        </mxCell>
        <mxCell id="QbKwpGhtAWg21QJ3tqEk-47" value="+agendarCita(fecha, motivo) : Cita" style="text;strokeColor=none;fillColor=none;align=left;verticalAlign=top;spacingLeft=4;spacingRight=4;overflow=hidden;rotatable=0;points=[[0,0.5],[1,0.5]];portConstraint=eastwest;" vertex="1" parent="QbKwpGhtAWg21QJ3tqEk-42">
          <mxGeometry y="140.12859889439176" width="377" height="33" as="geometry" />
        </mxCell>
        <mxCell id="QbKwpGhtAWg21QJ3tqEk-48" value="+cancelarCita(cita) : void" style="text;strokeColor=none;fillColor=none;align=left;verticalAlign=top;spacingLeft=4;spacingRight=4;overflow=hidden;rotatable=0;points=[[0,0.5],[1,0.5]];portConstraint=eastwest;" vertex="1" parent="QbKwpGhtAWg21QJ3tqEk-42">
          <mxGeometry y="173.12859889439176" width="377" height="33" as="geometry" />
        </mxCell>
        <mxCell id="QbKwpGhtAWg21QJ3tqEk-49" value="+consultarHorarios() : List&lt;HorarioAtencion&gt;" style="text;strokeColor=none;fillColor=none;align=left;verticalAlign=top;spacingLeft=4;spacingRight=4;overflow=hidden;rotatable=0;points=[[0,0.5],[1,0.5]];portConstraint=eastwest;" vertex="1" parent="QbKwpGhtAWg21QJ3tqEk-42">
          <mxGeometry y="206.12859889439176" width="377" height="33" as="geometry" />
        </mxCell>
        <mxCell id="QbKwpGhtAWg21QJ3tqEk-50" value="Autenticacion" style="swimlane;fontStyle=1;align=center;verticalAlign=top;childLayout=stackLayout;horizontal=1;startSize=33.12859889439174;horizontalStack=0;resizeParent=1;resizeParentMax=0;resizeLast=0;collapsible=0;marginBottom=0;" vertex="1" parent="1">
          <mxGeometry x="1420" y="620" width="409" height="239.12859889439176" as="geometry" />
        </mxCell>
        <mxCell id="QbKwpGhtAWg21QJ3tqEk-51" value="-int id" style="text;strokeColor=none;fillColor=none;align=left;verticalAlign=top;spacingLeft=4;spacingRight=4;overflow=hidden;rotatable=0;points=[[0,0.5],[1,0.5]];portConstraint=eastwest;" vertex="1" parent="QbKwpGhtAWg21QJ3tqEk-50">
          <mxGeometry y="33.12859889439174" width="409" height="33" as="geometry" />
        </mxCell>
        <mxCell id="QbKwpGhtAWg21QJ3tqEk-52" value="-int usuario_id" style="text;strokeColor=none;fillColor=none;align=left;verticalAlign=top;spacingLeft=4;spacingRight=4;overflow=hidden;rotatable=0;points=[[0,0.5],[1,0.5]];portConstraint=eastwest;" vertex="1" parent="QbKwpGhtAWg21QJ3tqEk-50">
          <mxGeometry y="66.12859889439174" width="409" height="33" as="geometry" />
        </mxCell>
        <mxCell id="QbKwpGhtAWg21QJ3tqEk-53" value="-String contrasena" style="text;strokeColor=none;fillColor=none;align=left;verticalAlign=top;spacingLeft=4;spacingRight=4;overflow=hidden;rotatable=0;points=[[0,0.5],[1,0.5]];portConstraint=eastwest;" vertex="1" parent="QbKwpGhtAWg21QJ3tqEk-50">
          <mxGeometry y="99.12859889439174" width="409" height="33" as="geometry" />
        </mxCell>
        <mxCell id="QbKwpGhtAWg21QJ3tqEk-54" style="line;strokeWidth=1;fillColor=none;align=left;verticalAlign=middle;spacingTop=-1;spacingLeft=3;spacingRight=3;rotatable=0;labelPosition=right;points=[];portConstraint=eastwest;strokeColor=inherit;" vertex="1" parent="QbKwpGhtAWg21QJ3tqEk-50">
          <mxGeometry y="132.12859889439176" width="409" height="8" as="geometry" />
        </mxCell>
        <mxCell id="QbKwpGhtAWg21QJ3tqEk-55" value="+validarCredenciales(usuario, clave) : boolean" style="text;strokeColor=none;fillColor=none;align=left;verticalAlign=top;spacingLeft=4;spacingRight=4;overflow=hidden;rotatable=0;points=[[0,0.5],[1,0.5]];portConstraint=eastwest;" vertex="1" parent="QbKwpGhtAWg21QJ3tqEk-50">
          <mxGeometry y="140.12859889439176" width="409" height="33" as="geometry" />
        </mxCell>
        <mxCell id="QbKwpGhtAWg21QJ3tqEk-56" value="+cambiarContrasena(nueva) : void" style="text;strokeColor=none;fillColor=none;align=left;verticalAlign=top;spacingLeft=4;spacingRight=4;overflow=hidden;rotatable=0;points=[[0,0.5],[1,0.5]];portConstraint=eastwest;" vertex="1" parent="QbKwpGhtAWg21QJ3tqEk-50">
          <mxGeometry y="173.12859889439176" width="409" height="33" as="geometry" />
        </mxCell>
        <mxCell id="QbKwpGhtAWg21QJ3tqEk-57" value="+verificarSeguridad() : boolean" style="text;strokeColor=none;fillColor=none;align=left;verticalAlign=top;spacingLeft=4;spacingRight=4;overflow=hidden;rotatable=0;points=[[0,0.5],[1,0.5]];portConstraint=eastwest;" vertex="1" parent="QbKwpGhtAWg21QJ3tqEk-50">
          <mxGeometry y="206.12859889439176" width="409" height="33" as="geometry" />
        </mxCell>
        <mxCell id="QbKwpGhtAWg21QJ3tqEk-58" value="Cita" style="swimlane;fontStyle=1;align=center;verticalAlign=top;childLayout=stackLayout;horizontal=1;startSize=28.90881817157452;horizontalStack=0;resizeParent=1;resizeParentMax=0;resizeLast=0;collapsible=0;marginBottom=0;" vertex="1" parent="1">
          <mxGeometry x="1689" y="1500" width="348" height="384.9088181715745" as="geometry" />
        </mxCell>
        <mxCell id="QbKwpGhtAWg21QJ3tqEk-59" value="-int id" style="text;strokeColor=none;fillColor=none;align=left;verticalAlign=top;spacingLeft=4;spacingRight=4;overflow=hidden;rotatable=0;points=[[0,0.5],[1,0.5]];portConstraint=eastwest;" vertex="1" parent="QbKwpGhtAWg21QJ3tqEk-58">
          <mxGeometry y="28.90881817157452" width="348" height="29" as="geometry" />
        </mxCell>
        <mxCell id="QbKwpGhtAWg21QJ3tqEk-60" value="-int usuario_id" style="text;strokeColor=none;fillColor=none;align=left;verticalAlign=top;spacingLeft=4;spacingRight=4;overflow=hidden;rotatable=0;points=[[0,0.5],[1,0.5]];portConstraint=eastwest;" vertex="1" parent="QbKwpGhtAWg21QJ3tqEk-58">
          <mxGeometry y="57.908818171574524" width="348" height="29" as="geometry" />
        </mxCell>
        <mxCell id="QbKwpGhtAWg21QJ3tqEk-61" value="-Date fecha" style="text;strokeColor=none;fillColor=none;align=left;verticalAlign=top;spacingLeft=4;spacingRight=4;overflow=hidden;rotatable=0;points=[[0,0.5],[1,0.5]];portConstraint=eastwest;" vertex="1" parent="QbKwpGhtAWg21QJ3tqEk-58">
          <mxGeometry y="86.90881817157452" width="348" height="29" as="geometry" />
        </mxCell>
        <mxCell id="QbKwpGhtAWg21QJ3tqEk-62" value="-Time hora" style="text;strokeColor=none;fillColor=none;align=left;verticalAlign=top;spacingLeft=4;spacingRight=4;overflow=hidden;rotatable=0;points=[[0,0.5],[1,0.5]];portConstraint=eastwest;" vertex="1" parent="QbKwpGhtAWg21QJ3tqEk-58">
          <mxGeometry y="115.90881817157452" width="348" height="29" as="geometry" />
        </mxCell>
        <mxCell id="QbKwpGhtAWg21QJ3tqEk-63" value="-String motivo" style="text;strokeColor=none;fillColor=none;align=left;verticalAlign=top;spacingLeft=4;spacingRight=4;overflow=hidden;rotatable=0;points=[[0,0.5],[1,0.5]];portConstraint=eastwest;" vertex="1" parent="QbKwpGhtAWg21QJ3tqEk-58">
          <mxGeometry y="144.90881817157452" width="348" height="29" as="geometry" />
        </mxCell>
        <mxCell id="QbKwpGhtAWg21QJ3tqEk-64" value="-String estado" style="text;strokeColor=none;fillColor=none;align=left;verticalAlign=top;spacingLeft=4;spacingRight=4;overflow=hidden;rotatable=0;points=[[0,0.5],[1,0.5]];portConstraint=eastwest;" vertex="1" parent="QbKwpGhtAWg21QJ3tqEk-58">
          <mxGeometry y="173.90881817157452" width="348" height="29" as="geometry" />
        </mxCell>
        <mxCell id="QbKwpGhtAWg21QJ3tqEk-65" style="line;strokeWidth=1;fillColor=none;align=left;verticalAlign=middle;spacingTop=-1;spacingLeft=3;spacingRight=3;rotatable=0;labelPosition=right;points=[];portConstraint=eastwest;strokeColor=inherit;" vertex="1" parent="QbKwpGhtAWg21QJ3tqEk-58">
          <mxGeometry y="202.90881817157452" width="348" height="8" as="geometry" />
        </mxCell>
        <mxCell id="QbKwpGhtAWg21QJ3tqEk-66" value="+confirmar() : void" style="text;strokeColor=none;fillColor=none;align=left;verticalAlign=top;spacingLeft=4;spacingRight=4;overflow=hidden;rotatable=0;points=[[0,0.5],[1,0.5]];portConstraint=eastwest;" vertex="1" parent="QbKwpGhtAWg21QJ3tqEk-58">
          <mxGeometry y="210.90881817157452" width="348" height="29" as="geometry" />
        </mxCell>
        <mxCell id="QbKwpGhtAWg21QJ3tqEk-67" value="+cancelar() : void" style="text;strokeColor=none;fillColor=none;align=left;verticalAlign=top;spacingLeft=4;spacingRight=4;overflow=hidden;rotatable=0;points=[[0,0.5],[1,0.5]];portConstraint=eastwest;" vertex="1" parent="QbKwpGhtAWg21QJ3tqEk-58">
          <mxGeometry y="239.90881817157452" width="348" height="29" as="geometry" />
        </mxCell>
        <mxCell id="QbKwpGhtAWg21QJ3tqEk-68" value="+reagendar(nuevaFecha, nuevaHora) : void" style="text;strokeColor=none;fillColor=none;align=left;verticalAlign=top;spacingLeft=4;spacingRight=4;overflow=hidden;rotatable=0;points=[[0,0.5],[1,0.5]];portConstraint=eastwest;" vertex="1" parent="QbKwpGhtAWg21QJ3tqEk-58">
          <mxGeometry y="268.9088181715745" width="348" height="29" as="geometry" />
        </mxCell>
        <mxCell id="QbKwpGhtAWg21QJ3tqEk-69" value="+completar() : void" style="text;strokeColor=none;fillColor=none;align=left;verticalAlign=top;spacingLeft=4;spacingRight=4;overflow=hidden;rotatable=0;points=[[0,0.5],[1,0.5]];portConstraint=eastwest;" vertex="1" parent="QbKwpGhtAWg21QJ3tqEk-58">
          <mxGeometry y="297.9088181715745" width="348" height="29" as="geometry" />
        </mxCell>
        <mxCell id="QbKwpGhtAWg21QJ3tqEk-70" value="+validarDisponibilidad() : boolean" style="text;strokeColor=none;fillColor=none;align=left;verticalAlign=top;spacingLeft=4;spacingRight=4;overflow=hidden;rotatable=0;points=[[0,0.5],[1,0.5]];portConstraint=eastwest;" vertex="1" parent="QbKwpGhtAWg21QJ3tqEk-58">
          <mxGeometry y="326.9088181715745" width="348" height="29" as="geometry" />
        </mxCell>
        <mxCell id="QbKwpGhtAWg21QJ3tqEk-71" value="+enviarRecordatorio() : void" style="text;strokeColor=none;fillColor=none;align=left;verticalAlign=top;spacingLeft=4;spacingRight=4;overflow=hidden;rotatable=0;points=[[0,0.5],[1,0.5]];portConstraint=eastwest;" vertex="1" parent="QbKwpGhtAWg21QJ3tqEk-58">
          <mxGeometry y="355.9088181715745" width="348" height="29" as="geometry" />
        </mxCell>
        <mxCell id="QbKwpGhtAWg21QJ3tqEk-72" value="Evento" style="swimlane;fontStyle=1;align=center;verticalAlign=top;childLayout=stackLayout;horizontal=1;startSize=28.557172502790177;horizontalStack=0;resizeParent=1;resizeParentMax=0;resizeLast=0;collapsible=0;marginBottom=0;" vertex="1" parent="1">
          <mxGeometry x="842" y="1490" width="350" height="413.5571725027902" as="geometry" />
        </mxCell>
        <mxCell id="QbKwpGhtAWg21QJ3tqEk-73" value="-int id" style="text;strokeColor=none;fillColor=none;align=left;verticalAlign=top;spacingLeft=4;spacingRight=4;overflow=hidden;rotatable=0;points=[[0,0.5],[1,0.5]];portConstraint=eastwest;" vertex="1" parent="QbKwpGhtAWg21QJ3tqEk-72">
          <mxGeometry y="28.557172502790177" width="350" height="29" as="geometry" />
        </mxCell>
        <mxCell id="QbKwpGhtAWg21QJ3tqEk-74" value="-String tipo" style="text;strokeColor=none;fillColor=none;align=left;verticalAlign=top;spacingLeft=4;spacingRight=4;overflow=hidden;rotatable=0;points=[[0,0.5],[1,0.5]];portConstraint=eastwest;" vertex="1" parent="QbKwpGhtAWg21QJ3tqEk-72">
          <mxGeometry y="57.55717250279018" width="350" height="29" as="geometry" />
        </mxCell>
        <mxCell id="QbKwpGhtAWg21QJ3tqEk-75" value="-Date fecha" style="text;strokeColor=none;fillColor=none;align=left;verticalAlign=top;spacingLeft=4;spacingRight=4;overflow=hidden;rotatable=0;points=[[0,0.5],[1,0.5]];portConstraint=eastwest;" vertex="1" parent="QbKwpGhtAWg21QJ3tqEk-72">
          <mxGeometry y="86.55717250279018" width="350" height="29" as="geometry" />
        </mxCell>
        <mxCell id="QbKwpGhtAWg21QJ3tqEk-76" value="-Time duracion" style="text;strokeColor=none;fillColor=none;align=left;verticalAlign=top;spacingLeft=4;spacingRight=4;overflow=hidden;rotatable=0;points=[[0,0.5],[1,0.5]];portConstraint=eastwest;" vertex="1" parent="QbKwpGhtAWg21QJ3tqEk-72">
          <mxGeometry y="115.55717250279018" width="350" height="29" as="geometry" />
        </mxCell>
        <mxCell id="QbKwpGhtAWg21QJ3tqEk-77" value="-String responsables" style="text;strokeColor=none;fillColor=none;align=left;verticalAlign=top;spacingLeft=4;spacingRight=4;overflow=hidden;rotatable=0;points=[[0,0.5],[1,0.5]];portConstraint=eastwest;" vertex="1" parent="QbKwpGhtAWg21QJ3tqEk-72">
          <mxGeometry y="144.5571725027902" width="350" height="29" as="geometry" />
        </mxCell>
        <mxCell id="QbKwpGhtAWg21QJ3tqEk-78" value="-String participantes" style="text;strokeColor=none;fillColor=none;align=left;verticalAlign=top;spacingLeft=4;spacingRight=4;overflow=hidden;rotatable=0;points=[[0,0.5],[1,0.5]];portConstraint=eastwest;" vertex="1" parent="QbKwpGhtAWg21QJ3tqEk-72">
          <mxGeometry y="173.5571725027902" width="350" height="29" as="geometry" />
        </mxCell>
        <mxCell id="QbKwpGhtAWg21QJ3tqEk-79" value="-int secretaria_id" style="text;strokeColor=none;fillColor=none;align=left;verticalAlign=top;spacingLeft=4;spacingRight=4;overflow=hidden;rotatable=0;points=[[0,0.5],[1,0.5]];portConstraint=eastwest;" vertex="1" parent="QbKwpGhtAWg21QJ3tqEk-72">
          <mxGeometry y="202.5571725027902" width="350" height="29" as="geometry" />
        </mxCell>
        <mxCell id="QbKwpGhtAWg21QJ3tqEk-80" style="line;strokeWidth=1;fillColor=none;align=left;verticalAlign=middle;spacingTop=-1;spacingLeft=3;spacingRight=3;rotatable=0;labelPosition=right;points=[];portConstraint=eastwest;strokeColor=inherit;" vertex="1" parent="QbKwpGhtAWg21QJ3tqEk-72">
          <mxGeometry y="231.5571725027902" width="350" height="8" as="geometry" />
        </mxCell>
        <mxCell id="QbKwpGhtAWg21QJ3tqEk-81" value="+crear() : void" style="text;strokeColor=none;fillColor=none;align=left;verticalAlign=top;spacingLeft=4;spacingRight=4;overflow=hidden;rotatable=0;points=[[0,0.5],[1,0.5]];portConstraint=eastwest;" vertex="1" parent="QbKwpGhtAWg21QJ3tqEk-72">
          <mxGeometry y="239.5571725027902" width="350" height="29" as="geometry" />
        </mxCell>
        <mxCell id="QbKwpGhtAWg21QJ3tqEk-82" value="+modificar() : void" style="text;strokeColor=none;fillColor=none;align=left;verticalAlign=top;spacingLeft=4;spacingRight=4;overflow=hidden;rotatable=0;points=[[0,0.5],[1,0.5]];portConstraint=eastwest;" vertex="1" parent="QbKwpGhtAWg21QJ3tqEk-72">
          <mxGeometry y="268.5571725027902" width="350" height="29" as="geometry" />
        </mxCell>
        <mxCell id="QbKwpGhtAWg21QJ3tqEk-83" value="+eliminar() : void" style="text;strokeColor=none;fillColor=none;align=left;verticalAlign=top;spacingLeft=4;spacingRight=4;overflow=hidden;rotatable=0;points=[[0,0.5],[1,0.5]];portConstraint=eastwest;" vertex="1" parent="QbKwpGhtAWg21QJ3tqEk-72">
          <mxGeometry y="297.5571725027902" width="350" height="29" as="geometry" />
        </mxCell>
        <mxCell id="QbKwpGhtAWg21QJ3tqEk-84" value="+agregarParticipante(participante) : void" style="text;strokeColor=none;fillColor=none;align=left;verticalAlign=top;spacingLeft=4;spacingRight=4;overflow=hidden;rotatable=0;points=[[0,0.5],[1,0.5]];portConstraint=eastwest;" vertex="1" parent="QbKwpGhtAWg21QJ3tqEk-72">
          <mxGeometry y="326.5571725027902" width="350" height="29" as="geometry" />
        </mxCell>
        <mxCell id="QbKwpGhtAWg21QJ3tqEk-85" value="+removerParticipante(participante) : void" style="text;strokeColor=none;fillColor=none;align=left;verticalAlign=top;spacingLeft=4;spacingRight=4;overflow=hidden;rotatable=0;points=[[0,0.5],[1,0.5]];portConstraint=eastwest;" vertex="1" parent="QbKwpGhtAWg21QJ3tqEk-72">
          <mxGeometry y="355.5571725027902" width="350" height="29" as="geometry" />
        </mxCell>
        <mxCell id="QbKwpGhtAWg21QJ3tqEk-86" value="+cambiarEstado(nuevoEstado) : void" style="text;strokeColor=none;fillColor=none;align=left;verticalAlign=top;spacingLeft=4;spacingRight=4;overflow=hidden;rotatable=0;points=[[0,0.5],[1,0.5]];portConstraint=eastwest;" vertex="1" parent="QbKwpGhtAWg21QJ3tqEk-72">
          <mxGeometry y="384.5571725027902" width="350" height="29" as="geometry" />
        </mxCell>
        <mxCell id="QbKwpGhtAWg21QJ3tqEk-87" value="Agenda" style="swimlane;fontStyle=1;align=center;verticalAlign=top;childLayout=stackLayout;horizontal=1;startSize=28.90882051908053;horizontalStack=0;resizeParent=1;resizeParentMax=0;resizeLast=0;collapsible=0;marginBottom=0;" vertex="1" parent="1">
          <mxGeometry x="1275" y="1500" width="372" height="384.90882051908056" as="geometry" />
        </mxCell>
        <mxCell id="QbKwpGhtAWg21QJ3tqEk-88" value="-int id" style="text;strokeColor=none;fillColor=none;align=left;verticalAlign=top;spacingLeft=4;spacingRight=4;overflow=hidden;rotatable=0;points=[[0,0.5],[1,0.5]];portConstraint=eastwest;" vertex="1" parent="QbKwpGhtAWg21QJ3tqEk-87">
          <mxGeometry y="28.90882051908053" width="372" height="29" as="geometry" />
        </mxCell>
        <mxCell id="QbKwpGhtAWg21QJ3tqEk-89" value="-String nombre" style="text;strokeColor=none;fillColor=none;align=left;verticalAlign=top;spacingLeft=4;spacingRight=4;overflow=hidden;rotatable=0;points=[[0,0.5],[1,0.5]];portConstraint=eastwest;" vertex="1" parent="QbKwpGhtAWg21QJ3tqEk-87">
          <mxGeometry y="57.90882051908053" width="372" height="29" as="geometry" />
        </mxCell>
        <mxCell id="QbKwpGhtAWg21QJ3tqEk-90" value="-Date fechaCreacion" style="text;strokeColor=none;fillColor=none;align=left;verticalAlign=top;spacingLeft=4;spacingRight=4;overflow=hidden;rotatable=0;points=[[0,0.5],[1,0.5]];portConstraint=eastwest;" vertex="1" parent="QbKwpGhtAWg21QJ3tqEk-87">
          <mxGeometry y="86.90882051908054" width="372" height="29" as="geometry" />
        </mxCell>
        <mxCell id="QbKwpGhtAWg21QJ3tqEk-91" value="-Date fechaUltimaActualizacion" style="text;strokeColor=none;fillColor=none;align=left;verticalAlign=top;spacingLeft=4;spacingRight=4;overflow=hidden;rotatable=0;points=[[0,0.5],[1,0.5]];portConstraint=eastwest;" vertex="1" parent="QbKwpGhtAWg21QJ3tqEk-87">
          <mxGeometry y="115.90882051908054" width="372" height="29" as="geometry" />
        </mxCell>
        <mxCell id="QbKwpGhtAWg21QJ3tqEk-92" style="line;strokeWidth=1;fillColor=none;align=left;verticalAlign=middle;spacingTop=-1;spacingLeft=3;spacingRight=3;rotatable=0;labelPosition=right;points=[];portConstraint=eastwest;strokeColor=inherit;" vertex="1" parent="QbKwpGhtAWg21QJ3tqEk-87">
          <mxGeometry y="144.90882051908054" width="372" height="8" as="geometry" />
        </mxCell>
        <mxCell id="QbKwpGhtAWg21QJ3tqEk-93" value="+agregarCita(cita) : void" style="text;strokeColor=none;fillColor=none;align=left;verticalAlign=top;spacingLeft=4;spacingRight=4;overflow=hidden;rotatable=0;points=[[0,0.5],[1,0.5]];portConstraint=eastwest;" vertex="1" parent="QbKwpGhtAWg21QJ3tqEk-87">
          <mxGeometry y="152.90882051908054" width="372" height="29" as="geometry" />
        </mxCell>
        <mxCell id="QbKwpGhtAWg21QJ3tqEk-94" value="+eliminarCita(cita) : void" style="text;strokeColor=none;fillColor=none;align=left;verticalAlign=top;spacingLeft=4;spacingRight=4;overflow=hidden;rotatable=0;points=[[0,0.5],[1,0.5]];portConstraint=eastwest;" vertex="1" parent="QbKwpGhtAWg21QJ3tqEk-87">
          <mxGeometry y="181.90882051908054" width="372" height="29" as="geometry" />
        </mxCell>
        <mxCell id="QbKwpGhtAWg21QJ3tqEk-95" value="+agregarEvento(evento) : void" style="text;strokeColor=none;fillColor=none;align=left;verticalAlign=top;spacingLeft=4;spacingRight=4;overflow=hidden;rotatable=0;points=[[0,0.5],[1,0.5]];portConstraint=eastwest;" vertex="1" parent="QbKwpGhtAWg21QJ3tqEk-87">
          <mxGeometry y="210.90882051908054" width="372" height="29" as="geometry" />
        </mxCell>
        <mxCell id="QbKwpGhtAWg21QJ3tqEk-96" value="+eliminarEvento(evento) : void" style="text;strokeColor=none;fillColor=none;align=left;verticalAlign=top;spacingLeft=4;spacingRight=4;overflow=hidden;rotatable=0;points=[[0,0.5],[1,0.5]];portConstraint=eastwest;" vertex="1" parent="QbKwpGhtAWg21QJ3tqEk-87">
          <mxGeometry y="239.90882051908054" width="372" height="29" as="geometry" />
        </mxCell>
        <mxCell id="QbKwpGhtAWg21QJ3tqEk-97" value="+consultarDisponibilidad(fecha) : boolean" style="text;strokeColor=none;fillColor=none;align=left;verticalAlign=top;spacingLeft=4;spacingRight=4;overflow=hidden;rotatable=0;points=[[0,0.5],[1,0.5]];portConstraint=eastwest;" vertex="1" parent="QbKwpGhtAWg21QJ3tqEk-87">
          <mxGeometry y="268.90882051908056" width="372" height="29" as="geometry" />
        </mxCell>
        <mxCell id="QbKwpGhtAWg21QJ3tqEk-98" value="+obtenerEventosPorTipo(tipo) : List&lt;Evento&gt;" style="text;strokeColor=none;fillColor=none;align=left;verticalAlign=top;spacingLeft=4;spacingRight=4;overflow=hidden;rotatable=0;points=[[0,0.5],[1,0.5]];portConstraint=eastwest;" vertex="1" parent="QbKwpGhtAWg21QJ3tqEk-87">
          <mxGeometry y="297.90882051908056" width="372" height="29" as="geometry" />
        </mxCell>
        <mxCell id="QbKwpGhtAWg21QJ3tqEk-99" value="+detectarConflictos() : List&lt;String&gt;" style="text;strokeColor=none;fillColor=none;align=left;verticalAlign=top;spacingLeft=4;spacingRight=4;overflow=hidden;rotatable=0;points=[[0,0.5],[1,0.5]];portConstraint=eastwest;" vertex="1" parent="QbKwpGhtAWg21QJ3tqEk-87">
          <mxGeometry y="326.90882051908056" width="372" height="29" as="geometry" />
        </mxCell>
        <mxCell id="QbKwpGhtAWg21QJ3tqEk-100" value="+generarReporteAgenda() : String" style="text;strokeColor=none;fillColor=none;align=left;verticalAlign=top;spacingLeft=4;spacingRight=4;overflow=hidden;rotatable=0;points=[[0,0.5],[1,0.5]];portConstraint=eastwest;" vertex="1" parent="QbKwpGhtAWg21QJ3tqEk-87">
          <mxGeometry y="355.90882051908056" width="372" height="29" as="geometry" />
        </mxCell>
        <mxCell id="QbKwpGhtAWg21QJ3tqEk-101" value="ChatBot" style="swimlane;fontStyle=1;align=center;verticalAlign=top;childLayout=stackLayout;horizontal=1;startSize=28.90881817157452;horizontalStack=0;resizeParent=1;resizeParentMax=0;resizeLast=0;collapsible=0;marginBottom=0;" vertex="1" parent="1">
          <mxGeometry x="869" y="620" width="401" height="384.9088181715745" as="geometry" />
        </mxCell>
        <mxCell id="QbKwpGhtAWg21QJ3tqEk-102" value="-int id" style="text;strokeColor=none;fillColor=none;align=left;verticalAlign=top;spacingLeft=4;spacingRight=4;overflow=hidden;rotatable=0;points=[[0,0.5],[1,0.5]];portConstraint=eastwest;" vertex="1" parent="QbKwpGhtAWg21QJ3tqEk-101">
          <mxGeometry y="28.90881817157452" width="401" height="29" as="geometry" />
        </mxCell>
        <mxCell id="QbKwpGhtAWg21QJ3tqEk-103" value="-String pregunta" style="text;strokeColor=none;fillColor=none;align=left;verticalAlign=top;spacingLeft=4;spacingRight=4;overflow=hidden;rotatable=0;points=[[0,0.5],[1,0.5]];portConstraint=eastwest;" vertex="1" parent="QbKwpGhtAWg21QJ3tqEk-101">
          <mxGeometry y="57.908818171574524" width="401" height="29" as="geometry" />
        </mxCell>
        <mxCell id="QbKwpGhtAWg21QJ3tqEk-104" value="-String respuesta" style="text;strokeColor=none;fillColor=none;align=left;verticalAlign=top;spacingLeft=4;spacingRight=4;overflow=hidden;rotatable=0;points=[[0,0.5],[1,0.5]];portConstraint=eastwest;" vertex="1" parent="QbKwpGhtAWg21QJ3tqEk-101">
          <mxGeometry y="86.90881817157452" width="401" height="29" as="geometry" />
        </mxCell>
        <mxCell id="QbKwpGhtAWg21QJ3tqEk-105" value="-String nombre" style="text;strokeColor=none;fillColor=none;align=left;verticalAlign=top;spacingLeft=4;spacingRight=4;overflow=hidden;rotatable=0;points=[[0,0.5],[1,0.5]];portConstraint=eastwest;" vertex="1" parent="QbKwpGhtAWg21QJ3tqEk-101">
          <mxGeometry y="115.90881817157452" width="401" height="29" as="geometry" />
        </mxCell>
        <mxCell id="QbKwpGhtAWg21QJ3tqEk-106" value="-String version" style="text;strokeColor=none;fillColor=none;align=left;verticalAlign=top;spacingLeft=4;spacingRight=4;overflow=hidden;rotatable=0;points=[[0,0.5],[1,0.5]];portConstraint=eastwest;" vertex="1" parent="QbKwpGhtAWg21QJ3tqEk-101">
          <mxGeometry y="144.90881817157452" width="401" height="29" as="geometry" />
        </mxCell>
        <mxCell id="QbKwpGhtAWg21QJ3tqEk-107" value="-List&lt;String&gt; baseConocimiento" style="text;strokeColor=none;fillColor=none;align=left;verticalAlign=top;spacingLeft=4;spacingRight=4;overflow=hidden;rotatable=0;points=[[0,0.5],[1,0.5]];portConstraint=eastwest;" vertex="1" parent="QbKwpGhtAWg21QJ3tqEk-101">
          <mxGeometry y="173.90881817157452" width="401" height="29" as="geometry" />
        </mxCell>
        <mxCell id="QbKwpGhtAWg21QJ3tqEk-108" style="line;strokeWidth=1;fillColor=none;align=left;verticalAlign=middle;spacingTop=-1;spacingLeft=3;spacingRight=3;rotatable=0;labelPosition=right;points=[];portConstraint=eastwest;strokeColor=inherit;" vertex="1" parent="QbKwpGhtAWg21QJ3tqEk-101">
          <mxGeometry y="202.90881817157452" width="401" height="8" as="geometry" />
        </mxCell>
        <mxCell id="QbKwpGhtAWg21QJ3tqEk-109" value="+procesarConsulta(consulta) : String" style="text;strokeColor=none;fillColor=none;align=left;verticalAlign=top;spacingLeft=4;spacingRight=4;overflow=hidden;rotatable=0;points=[[0,0.5],[1,0.5]];portConstraint=eastwest;" vertex="1" parent="QbKwpGhtAWg21QJ3tqEk-101">
          <mxGeometry y="210.90881817157452" width="401" height="29" as="geometry" />
        </mxCell>
        <mxCell id="QbKwpGhtAWg21QJ3tqEk-110" value="+buscarRespuesta(palabra) : String" style="text;strokeColor=none;fillColor=none;align=left;verticalAlign=top;spacingLeft=4;spacingRight=4;overflow=hidden;rotatable=0;points=[[0,0.5],[1,0.5]];portConstraint=eastwest;" vertex="1" parent="QbKwpGhtAWg21QJ3tqEk-101">
          <mxGeometry y="239.90881817157452" width="401" height="29" as="geometry" />
        </mxCell>
        <mxCell id="QbKwpGhtAWg21QJ3tqEk-111" value="+registrarInteraccion(consulta, respuesta) : void" style="text;strokeColor=none;fillColor=none;align=left;verticalAlign=top;spacingLeft=4;spacingRight=4;overflow=hidden;rotatable=0;points=[[0,0.5],[1,0.5]];portConstraint=eastwest;" vertex="1" parent="QbKwpGhtAWg21QJ3tqEk-101">
          <mxGeometry y="268.9088181715745" width="401" height="29" as="geometry" />
        </mxCell>
        <mxCell id="QbKwpGhtAWg21QJ3tqEk-112" value="+actualizarBaseConocimiento() : void" style="text;strokeColor=none;fillColor=none;align=left;verticalAlign=top;spacingLeft=4;spacingRight=4;overflow=hidden;rotatable=0;points=[[0,0.5],[1,0.5]];portConstraint=eastwest;" vertex="1" parent="QbKwpGhtAWg21QJ3tqEk-101">
          <mxGeometry y="297.9088181715745" width="401" height="29" as="geometry" />
        </mxCell>
        <mxCell id="QbKwpGhtAWg21QJ3tqEk-113" value="+mostrarHorarios() : String" style="text;strokeColor=none;fillColor=none;align=left;verticalAlign=top;spacingLeft=4;spacingRight=4;overflow=hidden;rotatable=0;points=[[0,0.5],[1,0.5]];portConstraint=eastwest;" vertex="1" parent="QbKwpGhtAWg21QJ3tqEk-101">
          <mxGeometry y="326.9088181715745" width="401" height="29" as="geometry" />
        </mxCell>
        <mxCell id="QbKwpGhtAWg21QJ3tqEk-114" value="+mostrarEventos() : String" style="text;strokeColor=none;fillColor=none;align=left;verticalAlign=top;spacingLeft=4;spacingRight=4;overflow=hidden;rotatable=0;points=[[0,0.5],[1,0.5]];portConstraint=eastwest;" vertex="1" parent="QbKwpGhtAWg21QJ3tqEk-101">
          <mxGeometry y="355.9088181715745" width="401" height="29" as="geometry" />
        </mxCell>
        <mxCell id="QbKwpGhtAWg21QJ3tqEk-115" value="HorarioAtencion" style="swimlane;fontStyle=1;align=center;verticalAlign=top;childLayout=stackLayout;horizontal=1;startSize=29.803924560546875;horizontalStack=0;resizeParent=1;resizeParentMax=0;resizeLast=0;collapsible=0;marginBottom=0;" vertex="1" parent="1">
          <mxGeometry x="394" y="1490" width="378" height="337.8039245605469" as="geometry" />
        </mxCell>
        <mxCell id="QbKwpGhtAWg21QJ3tqEk-116" value="-int id" style="text;strokeColor=none;fillColor=none;align=left;verticalAlign=top;spacingLeft=4;spacingRight=4;overflow=hidden;rotatable=0;points=[[0,0.5],[1,0.5]];portConstraint=eastwest;" vertex="1" parent="QbKwpGhtAWg21QJ3tqEk-115">
          <mxGeometry y="29.803924560546875" width="378" height="30" as="geometry" />
        </mxCell>
        <mxCell id="QbKwpGhtAWg21QJ3tqEk-117" value="-String diaSemana" style="text;strokeColor=none;fillColor=none;align=left;verticalAlign=top;spacingLeft=4;spacingRight=4;overflow=hidden;rotatable=0;points=[[0,0.5],[1,0.5]];portConstraint=eastwest;" vertex="1" parent="QbKwpGhtAWg21QJ3tqEk-115">
          <mxGeometry y="59.803924560546875" width="378" height="30" as="geometry" />
        </mxCell>
        <mxCell id="QbKwpGhtAWg21QJ3tqEk-118" value="-Time horaInicio" style="text;strokeColor=none;fillColor=none;align=left;verticalAlign=top;spacingLeft=4;spacingRight=4;overflow=hidden;rotatable=0;points=[[0,0.5],[1,0.5]];portConstraint=eastwest;" vertex="1" parent="QbKwpGhtAWg21QJ3tqEk-115">
          <mxGeometry y="89.80392456054688" width="378" height="30" as="geometry" />
        </mxCell>
        <mxCell id="QbKwpGhtAWg21QJ3tqEk-119" value="-Time horaFin" style="text;strokeColor=none;fillColor=none;align=left;verticalAlign=top;spacingLeft=4;spacingRight=4;overflow=hidden;rotatable=0;points=[[0,0.5],[1,0.5]];portConstraint=eastwest;" vertex="1" parent="QbKwpGhtAWg21QJ3tqEk-115">
          <mxGeometry y="119.80392456054688" width="378" height="30" as="geometry" />
        </mxCell>
        <mxCell id="QbKwpGhtAWg21QJ3tqEk-120" value="-Date fechaVigencia" style="text;strokeColor=none;fillColor=none;align=left;verticalAlign=top;spacingLeft=4;spacingRight=4;overflow=hidden;rotatable=0;points=[[0,0.5],[1,0.5]];portConstraint=eastwest;" vertex="1" parent="QbKwpGhtAWg21QJ3tqEk-115">
          <mxGeometry y="149.80392456054688" width="378" height="30" as="geometry" />
        </mxCell>
        <mxCell id="QbKwpGhtAWg21QJ3tqEk-121" value="-boolean activo" style="text;strokeColor=none;fillColor=none;align=left;verticalAlign=top;spacingLeft=4;spacingRight=4;overflow=hidden;rotatable=0;points=[[0,0.5],[1,0.5]];portConstraint=eastwest;" vertex="1" parent="QbKwpGhtAWg21QJ3tqEk-115">
          <mxGeometry y="179.80392456054688" width="378" height="30" as="geometry" />
        </mxCell>
        <mxCell id="QbKwpGhtAWg21QJ3tqEk-122" style="line;strokeWidth=1;fillColor=none;align=left;verticalAlign=middle;spacingTop=-1;spacingLeft=3;spacingRight=3;rotatable=0;labelPosition=right;points=[];portConstraint=eastwest;strokeColor=inherit;" vertex="1" parent="QbKwpGhtAWg21QJ3tqEk-115">
          <mxGeometry y="209.80392456054688" width="378" height="8" as="geometry" />
        </mxCell>
        <mxCell id="QbKwpGhtAWg21QJ3tqEk-123" value="+validarHorario() : boolean" style="text;strokeColor=none;fillColor=none;align=left;verticalAlign=top;spacingLeft=4;spacingRight=4;overflow=hidden;rotatable=0;points=[[0,0.5],[1,0.5]];portConstraint=eastwest;" vertex="1" parent="QbKwpGhtAWg21QJ3tqEk-115">
          <mxGeometry y="217.80392456054688" width="378" height="30" as="geometry" />
        </mxCell>
        <mxCell id="QbKwpGhtAWg21QJ3tqEk-124" value="+verificarDisponibilidad(fecha) : boolean" style="text;strokeColor=none;fillColor=none;align=left;verticalAlign=top;spacingLeft=4;spacingRight=4;overflow=hidden;rotatable=0;points=[[0,0.5],[1,0.5]];portConstraint=eastwest;" vertex="1" parent="QbKwpGhtAWg21QJ3tqEk-115">
          <mxGeometry y="247.80392456054688" width="378" height="30" as="geometry" />
        </mxCell>
        <mxCell id="QbKwpGhtAWg21QJ3tqEk-125" value="+activar() : void" style="text;strokeColor=none;fillColor=none;align=left;verticalAlign=top;spacingLeft=4;spacingRight=4;overflow=hidden;rotatable=0;points=[[0,0.5],[1,0.5]];portConstraint=eastwest;" vertex="1" parent="QbKwpGhtAWg21QJ3tqEk-115">
          <mxGeometry y="277.8039245605469" width="378" height="30" as="geometry" />
        </mxCell>
        <mxCell id="QbKwpGhtAWg21QJ3tqEk-126" value="+desactivar() : void" style="text;strokeColor=none;fillColor=none;align=left;verticalAlign=top;spacingLeft=4;spacingRight=4;overflow=hidden;rotatable=0;points=[[0,0.5],[1,0.5]];portConstraint=eastwest;" vertex="1" parent="QbKwpGhtAWg21QJ3tqEk-115">
          <mxGeometry y="307.8039245605469" width="378" height="30" as="geometry" />
        </mxCell>
      </root>
    </mxGraphModel>
  </diagram>
</mxfile>
